<svg width="811" height="817" viewBox="0 0 811 817" fill="none" xmlns="http://www.w3.org/2000/svg">
<rect width="811" height="817" fill="white"/>
<path d="M522.021 125.5C522.021 183.766 475.234 231 417.521 231C359.807 231 313.021 183.766 313.021 125.5C313.021 67.234 359.807 20 417.521 20C475.234 20 522.021 67.234 522.021 125.5Z" fill="#DB6E81"/>
<path d="M89.7839 465.545C119.384 275.945 250.521 207.5 318.484 222.046C319.484 221.546 354.186 234.723 382.021 242.5C416.021 252 463.117 255.546 488.784 254.546C545.184 252.146 623.951 329.879 656.284 369.045C777.884 517.445 711.951 686.879 663.784 753.046C639.784 797.446 559.117 800.546 521.784 796.546C508.984 795.174 504.984 784.844 505.984 775.955C510.484 735.955 471.984 726.827 453.784 725.046C339.384 713.846 279.784 659.046 264.284 633.046V563.546H243.784C230.184 560.746 232.451 551.046 235.284 546.546C299.617 483.212 431.284 354.446 443.284 346.046C455.284 337.646 468.521 341.5 472.784 345.546L554.284 425.045V382.545C542.617 370.545 513.184 341.146 488.784 319.546C464.384 297.946 438.284 309.879 428.284 318.546L216.784 524.546H209.284V479.546C207.984 473.955 195.984 475.455 195.984 478.955C192.384 559.355 226.984 621.955 244.984 641.955C264.784 663.955 375.784 749.546 440.784 744.546C492.784 740.546 490.984 773.955 481.484 783.955C458.484 812.455 343.521 794.74 290.521 775.955C211.521 747.955 60.1839 655.145 89.7839 465.545Z" fill="#DB6E81"/>
<path d="M554.284 382.545C542.617 370.545 513.184 341.146 488.784 319.546C464.384 297.946 438.284 309.879 428.284 318.546L216.784 524.546H209.284V479.546C207.984 473.955 195.984 475.455 195.984 478.955C192.384 559.355 226.984 621.955 244.984 641.955C264.784 663.955 375.784 749.546 440.784 744.546C492.784 740.546 490.984 773.955 481.484 783.955C458.484 812.455 343.521 794.74 290.521 775.955C211.521 747.955 60.1839 655.145 89.7839 465.545C119.384 275.945 250.521 207.5 318.484 222.046C319.484 221.546 354.186 234.723 382.021 242.5C416.021 252 463.117 255.546 488.784 254.546C545.184 252.146 623.951 329.879 656.284 369.045C777.884 517.445 711.951 686.879 663.784 753.046M554.284 382.545V425.045L472.784 345.546C468.521 341.5 455.284 337.646 443.284 346.046C431.284 354.446 299.617 483.212 235.284 546.546C232.451 551.046 230.184 560.746 243.784 563.546H264.284V633.046C279.784 659.046 339.384 713.846 453.784 725.046C471.984 726.827 510.484 735.955 505.984 775.955C504.984 784.844 508.984 795.174 521.784 796.546M554.284 382.545C554.117 376.712 557.084 365.045 570.284 365.045C583.484 365.045 609.784 365.045 621.284 365.045C624.951 366.212 632.484 371.345 633.284 382.545C634.084 393.745 632.951 439.879 632.284 461.545L702.284 531.046C710.484 539.955 703.984 551.546 690.784 551.546H663.284L663.784 753.046M521.784 796.546C559.117 800.546 639.784 797.446 663.784 753.046M521.784 796.546C558.868 800.076 639.186 796.318 663.784 753.046" stroke="white" stroke-width="5"/>
<path d="M548.02 574.665H495.355V522L548.02 574.665Z" fill="white"/>
<path d="M442.687 574.665H390.021L442.687 522V574.665Z" fill="white"/>
<path d="M495.355 680V627.334H548.02L495.355 680Z" fill="white"/>
<path d="M442.687 680L390.021 627.334H442.687V680Z" fill="white"/>
<path d="M467.395 630.074C460.725 630.074 456.516 627.9 455.007 626.98C454.054 625.142 453.022 619.206 452.863 615.276C453.26 614.69 454.452 614.523 454.769 615.025C455.96 619.289 459.216 627.482 468.427 627.482C475.098 627.482 478.354 622.884 478.354 617.868C478.354 614.189 477.639 610.093 471.842 606.163L464.298 600.98C460.327 598.221 455.721 593.455 455.721 586.599C455.721 578.657 461.598 572.219 471.921 572.219C474.383 572.219 477.242 572.637 479.306 573.307C480.339 573.557 481.451 573.808 482.086 573.808C482.8 575.814 483.515 580.496 483.515 584.008C483.197 584.509 481.927 584.76 481.53 584.259C480.498 580.245 478.354 574.811 470.73 574.811C462.948 574.811 461.28 580.245 461.28 584.092C461.28 588.941 465.092 592.369 468.03 594.375L474.383 598.555C479.386 601.816 484.309 606.665 484.309 614.607C484.309 623.804 477.718 630.074 467.395 630.074Z" fill="white"/>
</svg>
