<svg width="645" height="775" viewBox="0 0 645 775" fill="none" xmlns="http://www.w3.org/2000/svg">
<path d="M344.5 2.5C400.811 2.5 446.5 48.5922 446.5 105.5C446.5 162.408 400.811 208.5 344.5 208.5C288.189 208.5 242.5 162.408 242.5 105.5C242.5 48.5922 288.189 2.50002 344.5 2.5Z" fill="#DB6E81" stroke="white" stroke-width="5"/>
<path d="M6.78386 438.545C36.3839 248.945 167.521 180.5 235.484 195.046C236.484 194.546 271.186 207.723 299.021 215.5C333.021 225 380.117 228.546 405.784 227.546C462.184 225.146 540.951 302.879 573.284 342.045C694.884 490.445 628.951 659.879 580.784 726.046C556.784 770.446 476.117 773.546 438.784 769.546C425.984 768.174 421.984 757.844 422.984 748.955C427.484 708.955 388.984 699.827 370.784 698.046C256.384 686.846 196.784 632.046 181.284 606.046V536.546H160.784C147.184 533.746 149.451 524.046 152.284 519.546C216.617 456.212 348.284 327.446 360.284 319.046C372.284 310.646 385.521 314.5 389.784 318.546L471.284 398.045V355.545C459.617 343.545 430.184 314.146 405.784 292.546C381.384 270.946 355.284 282.879 345.284 291.546L133.784 497.546H126.284V452.546C124.984 446.955 112.984 448.455 112.984 451.955C109.384 532.355 143.984 594.955 161.984 614.955C181.784 636.955 292.784 722.546 357.784 717.546C409.784 713.546 407.984 746.955 398.484 756.955C375.484 785.455 260.521 767.74 207.521 748.955C128.521 720.955 -22.8161 628.145 6.78386 438.545Z" fill="#DB6E81"/>
<path d="M471.284 355.545C459.617 343.545 430.184 314.146 405.784 292.546C381.384 270.946 355.284 282.879 345.284 291.546L133.784 497.546H126.284V452.546C124.984 446.955 112.984 448.455 112.984 451.955C109.384 532.355 143.984 594.955 161.984 614.955C181.784 636.955 292.784 722.546 357.784 717.546C409.784 713.546 407.984 746.955 398.484 756.955C375.484 785.455 260.521 767.74 207.521 748.955C128.521 720.955 -22.8161 628.145 6.78386 438.545C36.3839 248.945 167.521 180.5 235.484 195.046C236.484 194.546 271.186 207.723 299.021 215.5C333.021 225 380.117 228.546 405.784 227.546C462.184 225.146 540.951 302.879 573.284 342.045C694.884 490.445 628.951 659.879 580.784 726.046M471.284 355.545V398.045L389.784 318.546C385.521 314.5 372.284 310.646 360.284 319.046C348.284 327.446 216.617 456.212 152.284 519.546C149.451 524.046 147.184 533.746 160.784 536.546H181.284V606.046C196.784 632.046 256.384 686.846 370.784 698.046C388.984 699.827 427.484 708.955 422.984 748.955C421.984 757.844 425.984 768.174 438.784 769.546M471.284 355.545C471.117 349.712 474.084 338.045 487.284 338.045C500.484 338.045 526.784 338.045 538.284 338.045C541.951 339.212 549.484 344.345 550.284 355.545C551.084 366.745 549.951 412.879 549.284 434.545L619.284 504.046C627.484 512.955 620.984 524.546 607.784 524.546H580.284L580.784 726.046M438.784 769.546C476.117 773.546 556.784 770.446 580.784 726.046M438.784 769.546C475.868 773.076 556.186 769.318 580.784 726.046" stroke="white" stroke-width="5"/>
<path d="M465.02 547.665H412.355V495L465.02 547.665Z" fill="white"/>
<path d="M359.687 547.665H307.021L359.687 495V547.665Z" fill="white"/>
<path d="M412.355 653V600.334H465.02L412.355 653Z" fill="white"/>
<path d="M359.687 653L307.021 600.334H359.687V653Z" fill="white"/>
<path d="M384.395 603.074C377.725 603.074 373.516 600.9 372.007 599.98C371.054 598.142 370.022 592.206 369.863 588.276C370.26 587.69 371.452 587.523 371.769 588.025C372.96 592.289 376.216 600.482 385.427 600.482C392.098 600.482 395.354 595.884 395.354 590.868C395.354 587.189 394.639 583.093 388.842 579.163L381.298 573.98C377.327 571.221 372.721 566.455 372.721 559.599C372.721 551.657 378.598 545.219 388.921 545.219C391.383 545.219 394.242 545.637 396.306 546.307C397.339 546.557 398.451 546.808 399.086 546.808C399.8 548.814 400.515 553.496 400.515 557.008C400.197 557.509 398.927 557.76 398.53 557.259C397.498 553.245 395.354 547.811 387.73 547.811C379.948 547.811 378.28 553.245 378.28 557.092C378.28 561.941 382.092 565.369 385.03 567.375L391.383 571.555C396.386 574.816 401.309 579.665 401.309 587.607C401.309 596.804 394.718 603.074 384.395 603.074Z" fill="white"/>
</svg>
